<svg width="849" height="692" xmlns="http://www.w3.org/2000/svg" xmlns:xlink="http://www.w3.org/1999/xlink" overflow="hidden"><defs><clipPath id="clip0"><rect x="215" y="0" width="849" height="692"/></clipPath></defs><g clip-path="url(#clip0)" transform="translate(-215 0)"><path d="M327.523 606.937C306.368 605.017 277.479 591.645 256.456 573.969 225.054 547.621 205.882 513.064 201.519 475.065L200.66 467.915 196.032 467.915C143.343 467.915 95.9427 435.675 76.7049 386.951 74.1266 380.397 71.7467 371.725 69.9618 362.457L68.4412 354.645 61.8964 351.269C49.3357 344.847 39.1549 337.102 28.2469 325.782 17.1405 314.196 10.0667 302.678 5.57132 288.908-0.444602 270.438-2.22952 248.327 0.943744 230.717 3.45592 216.55 10.8601 199.007 18.9254 188.216 24.4125 180.868 38.2293 166.899 45.0386 161.868 68.3751 144.523 92.505 138.565 126.485 141.743 136.468 142.736 134.947 144.126 138.848 130.621 157.358 66.3401 208.262 22.5151 274.636 13.7104 288.783 11.8568 312.913 13.1146 327.523 16.557 337.572 18.8741 353.174 24.7659 365.404 30.9226 368.908 32.6439 373.932 35.0271 376.51 36.2187L381.204 38.4034 389.071 33.1073C409.962 19.1388 425.96 11.9229 448.834 5.89866 464.898 1.72799 473.294 0.536366 493.788-0.456652 517.786-1.64827 550.179 4.11123 573.45 13.7765 598.174 24.0378 619.263 38.1385 637.906 56.8072 658.664 77.5942 673.671 101.228 683.786 129.165 688.215 141.478 690.859 152.269 694.43 173.056L694.826 175.174 709.833 174.844C721.534 174.579 726.625 174.711 733.103 175.572 761.134 179.345 785.131 191.129 805.493 211.386 841.523 247.002 854.215 296.918 839.209 343.325 836.3 352.13 829.094 366.959 823.673 375.035 805.295 402.575 774.752 424.024 743.681 431.107 730.591 434.153 702.429 434.153 686.827 431.174L684.513 430.776 681.075 437.727C673.473 453.02 665.077 464.539 652.715 476.521 636.518 492.277 617.082 503.928 595.464 510.813 580.722 515.58 563.599 517.433 545.552 516.242 529.421 515.183 522.281 513.792 508.398 509.291 503.374 507.636 499.011 506.312 498.68 506.312 497.953 506.312 497.622 506.974 490.879 520.876 478.847 545.767 461.659 566.091 439.116 581.979 423.249 593.167 401.103 603.031 385.303 606.01 378.758 607.268 338.431 607.864 327.523 606.937Z" fill="#7030A0" fill-rule="evenodd" transform="matrix(1 0 0 -1 217 608)"/><path d="M41.1608 101.119C21.9406 96.7597 7.32527 83.2865 1.31894 64.3975 0.050928 60.3026-0.215994 58.0571-0.215994 51.1884-0.14929 41.3475 0.8518 36.9886 5.18968 28.4027 11.6631 15.3917 24.2763 4.95657 38.2911 1.12595 44.898-0.657278 58.3788-0.459141 64.8523 1.52223 79.8681 6.2114 91.2134 15.5899 97.887 29.0632 101.891 37.1207 103.159 43.395 102.692 53.1698 102.425 58.9156 101.958 62.0198 100.557 66.0486 95.1508 82.2297 82.4708 94.7123 66.3205 99.9299 59.9139 101.911 47.4341 102.572 41.1608 101.119Z" fill="#7030A0" fill-rule="evenodd" transform="matrix(1 0 0 -1 315 650)"/><path d="M21.4373 62.4453C16.2704 60.6631 10.4411 56.9007 7.59275 53.4684 4.41312 49.64 1.23349 42.6433 0.372349 37.4948-2.47602 20.6632 7.52654 5.21764 23.9545 0.993242 37.799-2.57112 52.7697 3.76553 59.7251 16.1747 63.1034 22.1813 64.1633 26.8017 63.8321 33.9305 63.1697 47.4618 54.9557 58.3529 42.1048 62.6433 36.4742 64.5575 27.399 64.4255 21.4373 62.4453Z" fill="#7030A0" fill-rule="evenodd" transform="matrix(1 0 0 -1 262 691)"/></g></svg>